REM MD5 e350ffefa795b1824bae2be95474259f
FILE "Simple 1500 Series Vol. 7 - The Card (Japan).bin" BINARY
  TRACK 01 MODE2/2352
    INDEX 01 00:00:00
  TRACK 02 AUDIO
    INDEX 00 00:18:62
    INDEX 01 00:20:62
  TRACK 03 AUDIO
    INDEX 00 02:23:55
    INDEX 01 02:25:55
  TRACK 04 AUDIO
    INDEX 00 05:01:27
    INDEX 01 05:03:27
  TRACK 05 AUDIO
    INDEX 00 07:37:47
    INDEX 01 07:39:47
  TRACK 06 AUDIO
    INDEX 00 10:21:61
    INDEX 01 10:23:61
REM LEADOUT 12:59:33
